<?xml version="1.0" encoding="UTF-8"?>
<svg version="1.1" xmlns="http://www.w3.org/2000/svg" width="512" height="512">
<path d="M0 0 C3.90498025 0.01709052 7.80934643 0.00689433 11.71430588 -0.01032257 C74.42867542 -0.2440975 153.19156805 5.3324477 203.68652344 46.39111328 C204.45609375 46.98150391 205.22566406 47.57189453 206.01855469 48.18017578 C214.60071008 55.1049742 221.20498227 64.94648978 224.68652344 75.39111328 C225.12848875 79.61297203 225.24184629 83.83735007 225.37402344 88.07861328 C225.49293945 89.81788086 225.49293945 89.81788086 225.61425781 91.59228516 C225.82001338 100.00912325 225.82001338 100.00912325 222.67089844 103.84863281 C220.10811108 105.93894282 217.52102646 107.69103621 214.68652344 109.39111328 C214.02644287 109.82770264 213.3663623 110.26429199 212.6862793 110.71411133 C210.92820467 111.85009428 209.14555789 112.88294638 207.31152344 113.89111328 C206.64290283 114.26147705 205.97428223 114.63184082 205.28540039 115.01342773 C163.30648975 137.58051401 112.53929578 144.21766858 65.68652344 148.39111328 C65.01351196 148.45169922 64.34050049 148.51228516 63.64709473 148.57470703 C23.99116087 152.08991446 -16.6664897 151.96022014 -56.31347656 148.39111328 C-57.02258179 148.32794922 -57.73168701 148.26478516 -58.46228027 148.19970703 C-108.07412548 143.72666513 -168.36854155 137.05391215 -209.31347656 106.39111328 C-210.40015625 105.75044922 -211.48683594 105.10978516 -212.60644531 104.44970703 C-214.80447782 102.58487087 -215.27768114 101.56983088 -215.85229492 98.70092773 C-216.05212516 95.32772057 -216.03250759 92.01870788 -215.93847656 88.64111328 C-215.94814453 86.92794922 -215.94814453 86.92794922 -215.95800781 85.18017578 C-215.81513654 73.88035726 -211.86052339 66.35808122 -205.31347656 57.39111328 C-204.89710938 56.80716797 -204.48074219 56.22322266 -204.05175781 55.62158203 C-196.02032038 45.32301212 -183.69635031 38.33052987 -172.31347656 32.39111328 C-171.72244141 32.07464844 -171.13140625 31.75818359 -170.52246094 31.43212891 C-143.73229725 17.2457157 -113.0188974 10.37726136 -83.31347656 5.70361328 C-82.12520264 5.51307373 -80.93692871 5.32253418 -79.71264648 5.1262207 C-53.23958321 1.20295348 -26.7294673 -0.11783868 0 0 Z " fill="#ffffff" transform="translate(251.3134765625,-0.39111328125)"/>
<path d="M0 0 C0.95878052 0.54967438 1.91756104 1.09934875 2.90539551 1.66567993 C4.17714672 2.3938506 5.44891693 3.12198809 6.72070312 3.85009766 C7.66613983 4.39229698 7.66613983 4.39229698 8.63067627 4.94544983 C53.27901961 30.49495255 107.34617968 39.02441845 158 43 C159.2890625 43.10296387 160.578125 43.20592773 161.90625 43.31201172 C245.7881008 49.80660778 343.50451499 47.69506408 434.30322266 3.34033203 C435.37319489 2.71369659 436.44316711 2.08706116 437.54556274 1.44143677 C438.76050919 0.72792557 438.76050919 0.72792557 440 0 C440.11638117 9.83217645 440.20496067 19.66418625 440.25906086 29.49691391 C440.28504 34.06378439 440.32022131 38.63018005 440.37719727 43.19677734 C440.43193809 47.61238451 440.46150816 52.02753798 440.47438622 56.44345856 C440.48355128 58.11942934 440.50144664 59.79537821 440.52865028 61.47115326 C440.78889674 78.18302997 436.49779196 88.92071057 424.89453125 101.234375 C380.51825063 144.31221023 297.25760004 152.00560295 238.890625 152.203125 C237.48250294 152.21014762 236.0743812 152.21723443 234.66625977 152.22438049 C230.19416848 152.24376855 225.72212908 152.24881407 221.25 152.25 C220.10766151 152.25066278 220.10766151 152.25066278 218.94224548 152.25133896 C196.17268007 152.2582687 173.60305352 152.05430702 151 149 C150.33830811 148.91278687 149.67661621 148.82557373 148.99487305 148.73571777 C102.11088383 142.54658653 41.66193706 132.68346185 8.94140625 94.66015625 C3.29513683 86.92351747 -0.16194949 79.14343101 -0.11352539 69.59106445 C-0.11367142 68.83960144 -0.11381744 68.08813843 -0.1139679 67.31390381 C-0.11327129 64.83033358 -0.10549067 62.34683837 -0.09765625 59.86328125 C-0.09579118 58.14121034 -0.09436769 56.41913889 -0.09336853 54.69706726 C-0.0895504 50.16460709 -0.07972611 45.63217896 -0.06866455 41.09973145 C-0.05843531 36.47469516 -0.05386766 31.84965371 -0.04882812 27.22460938 C-0.03810323 18.1497255 -0.02103523 9.07486542 0 0 Z " fill="#ffffff" transform="translate(36,360)"/>
<path d="M0 0 C3.12017833 1.22970825 6.07925742 2.50805432 9.01171875 4.13671875 C51.38676751 27.30850423 100.81122657 35.37181049 148.375 40.25 C149.18271851 40.33308411 149.99043701 40.41616821 150.82263184 40.50177002 C153.1807095 40.74126134 155.53934603 40.97385036 157.8984375 41.203125 C158.565336 41.26956207 159.2322345 41.33599915 159.91934204 41.40444946 C173.2765183 42.66196515 186.62763782 43.16345111 200.0390625 43.203125 C201.5229139 43.21015118 203.006765 43.21723795 204.49061584 43.22438049 C209.20208175 43.24375586 213.91349826 43.24881448 218.625 43.25 C219.42860081 43.25044186 220.23220161 43.25088371 221.06015396 43.25133896 C245.82454254 43.25847584 270.37800566 42.90508284 295 40 C295.76115112 39.91278687 296.52230225 39.82557373 297.30651855 39.73571777 C343.30429133 34.46442461 392.09823953 26.65512117 432.73828125 3.2265625 C435.10163542 1.94488166 437.49866594 0.9791994 440 0 C440.18558044 10.83104897 440.32761785 21.66171815 440.41449738 32.49403477 C440.45620182 37.52434614 440.51274149 42.55356777 440.60351562 47.58325195 C440.69061382 52.43979998 440.73830982 57.29530181 440.75901794 62.15257072 C440.77376941 64.00302537 440.8025777 65.85342443 440.84584045 67.70343208 C441.17103723 82.1892288 441.17103723 82.1892288 438.28236389 86.65597534 C436.26001172 88.46365973 434.39380318 89.74268796 432 91 C430.90558594 91.721875 429.81117188 92.44375 428.68359375 93.1875 C425.14184312 95.16508398 421.59154249 97.11448793 418 99 C416.91460937 99.57621094 415.82921875 100.15242188 414.7109375 100.74609375 C380.14054813 117.95181628 339.82204414 124.70616562 301.75 129.25 C300.49977051 129.40098145 299.24954102 129.55196289 297.96142578 129.70751953 C272.98447979 132.51580336 248.06809358 133.37780817 222.9601059 133.31785583 C220.58637839 133.31241142 218.21266087 133.31004704 215.83892822 133.3079834 C192.11616681 133.27586214 168.58649497 132.71937723 145 130 C143.07196533 129.79117188 143.07196533 129.79117188 141.10498047 129.578125 C96.35275612 124.64561807 33.36040939 117.36040939 0 84 C-0.09509559 81.38311559 -0.12556 78.792711 -0.11352539 76.17553711 C-0.11367142 75.35609116 -0.11381744 74.5366452 -0.1139679 73.69236755 C-0.11326852 70.97066647 -0.10547501 68.24903295 -0.09765625 65.52734375 C-0.09579216 63.64547259 -0.09436821 61.76360094 -0.09336853 59.88172913 C-0.08954267 54.91851471 -0.07971181 49.95532936 -0.06866455 44.99212646 C-0.0584519 39.93160394 -0.05387122 34.87107673 -0.04882812 29.81054688 C-0.0380896 19.87368512 -0.02101236 9.93684497 0 0 Z " fill="#ffffff" transform="translate(36,131)"/>
<path d="M0 0 C3.88767381 1.50039148 7.20390796 3.303943 10.75 5.5 C86.50924195 50.01437233 197.3308218 48.82891916 373.20605469 27.04052734 C394.85877144 21.1020538 417.51926682 14.14038381 436.1015625 1.21484375 C438 0 438 0 440 0 C440.20889095 10.81369862 440.36862562 21.62691439 440.46630955 32.4422226 C440.51320363 37.46481279 440.57676385 42.4860189 440.67895508 47.5078125 C440.77703026 52.35791025 440.83061615 57.20668039 440.85389519 62.05769348 C440.87047507 63.90457557 440.90285469 65.7513881 440.95157051 67.59770203 C441.31735632 82.04045795 441.31735632 82.04045795 438.06695557 86.87536621 C435.80214906 88.9294648 433.64704855 90.48371839 431 92 C429.99254478 92.67070778 429.99254478 92.67070778 428.96473694 93.35496521 C427.22872499 94.50885504 425.45999242 95.51183471 423.625 96.5 C422.94421387 96.87181396 422.26342773 97.24362793 421.56201172 97.62670898 C386.13383422 116.53644857 345.44054225 123.80444794 306 129 C304.84564453 129.15452637 303.69128906 129.30905273 302.50195312 129.46826172 C269.94751461 133.71179483 236.79776799 134.60687026 204 134 C202.87239258 133.98066406 201.74478516 133.96132813 200.58300781 133.94140625 C139.37991777 132.7191419 45.60134507 129.60134507 0 84 C-0.18799291 81.31936573 -0.25181991 78.74290542 -0.22705078 76.06201172 C-0.22734283 75.24241974 -0.22763489 74.42282776 -0.22793579 73.57839966 C-0.22653944 70.86205557 -0.21096401 68.14598382 -0.1953125 65.4296875 C-0.19158345 63.54924672 -0.18873597 61.66880401 -0.18673706 59.7883606 C-0.17909207 54.83334002 -0.15943619 49.87843626 -0.1373291 44.92346191 C-0.11688928 39.8695636 -0.10773934 34.81564646 -0.09765625 29.76171875 C-0.07619109 19.84109445 -0.04204474 9.92055693 0 0 Z " fill="#ffffff" transform="translate(36,246)"/>
</svg>
