<?xml version="1.0" encoding="UTF-8"?>
<svg version="1.1" xmlns="http://www.w3.org/2000/svg" width="512" height="512">
<path d="M0 0 C3.1673815 4.97191046 3.42771419 8.98743316 3.37854004 14.68479919 C3.38307017 15.54661633 3.3876003 16.40843347 3.3922677 17.29636627 C3.40387343 20.17746851 3.39425203 23.05810485 3.38476562 25.93920898 C3.38887156 28.00753071 3.39433257 30.07585013 3.40104675 32.14416504 C3.41276849 36.59506817 3.41525723 41.04584731 3.41069031 45.49676323 C3.40388188 52.53526515 3.41974651 59.57360385 3.43908691 66.61207581 C3.47694867 81.55387508 3.4897435 96.49566012 3.5 111.4375 C3.51107214 127.56485857 3.52640958 143.69214208 3.57071257 159.81944901 C3.58907302 166.81562782 3.59295959 173.81162018 3.58577728 180.80781734 C3.58425546 185.16101841 3.59503917 189.51412619 3.60915565 193.86730194 C3.61315827 195.88489747 3.61203336 197.90251072 3.60538292 199.92009926 C3.59699595 202.67636654 3.60699806 205.43198866 3.62145996 208.18821716 C3.61456603 208.98472465 3.60767209 209.78123213 3.60056925 210.6018762 C3.67666902 218.05767311 5.94871058 223.39012156 11.1898703 228.68754715 C11.74648175 229.22977875 12.30309319 229.77201035 12.87657166 230.33067322 C13.47251131 230.92720831 14.06845097 231.5237434 14.6824494 232.13835531 C16.67209718 234.12523588 18.67564607 236.09746653 20.67944336 238.07006836 C22.11268927 239.49563373 23.54502431 240.92211538 24.97651672 242.34944153 C28.05650986 245.41680641 31.14260378 248.47784983 34.23353386 251.53419304 C39.12276435 256.36927149 43.99664608 261.21962569 48.86830139 266.07240295 C60.09219662 277.24814574 71.33602167 288.40376764 82.58005524 299.55924225 C92.88387498 309.78230914 103.18342267 320.00958372 113.46684557 330.25317293 C118.30812622 335.07454608 123.15898782 339.88600161 128.01745021 344.69005764 C131.04054093 347.68326491 134.05528025 350.68477761 137.06783867 353.68858147 C138.46393599 355.0772044 139.86348023 356.46237198 141.26674271 357.84375381 C143.18605761 359.7340827 145.0925254 361.63652649 146.9964447 363.54234314 C147.55082543 364.08234402 148.10520615 364.6223449 148.6763863 365.17870945 C152.92815564 369.47589191 156.39106603 374.4033059 157.41796875 380.46875 C156.34957016 389.88514434 149.66687738 394.67998436 142.625 400.3125 C121.87994688 416.35966991 98.77753378 428.48680518 74 437 C72.8346875 437.40734375 71.669375 437.8146875 70.46875 438.234375 C14.85749821 456.49059402 -48.02718822 449.91559824 -100 424 C-118.44773972 414.49564055 -135.22890961 402.65340095 -150.34765625 388.46484375 C-152.45711064 386.50451132 -154.58945942 384.63945317 -156.8125 382.8125 C-159.85368133 380.23077772 -162.43942845 377.39724547 -165.01171875 374.3515625 C-166.44523984 372.65612106 -167.91033362 370.98719816 -169.39453125 369.3359375 C-195.80938088 339.67481847 -212.13300766 302.62693238 -220 264 C-220.26683594 262.78086914 -220.26683594 262.78086914 -220.5390625 261.53710938 C-227.82790052 227.43576007 -224.32074156 188.03060859 -214 155 C-213.75411133 154.20609863 -213.50822266 153.41219727 -213.25488281 152.59423828 C-199.36732844 108.60536624 -170.72469936 66.96829557 -133 40 C-132.24509277 39.46020508 -131.49018555 38.92041016 -130.71240234 38.36425781 C-106.23334617 21.06943152 -29.6440718 -23.96754742 0 0 Z " fill="#ffda06" transform="translate(223,43)"/>
<path d="M0 0 C1.4236084 0.19855591 1.4236084 0.19855591 2.87597656 0.40112305 C47.11818339 6.89168074 93.7533088 26.18485369 125.0859375 59.05078125 C126.76903258 60.76814749 128.51816302 62.28694891 130.375 63.8125 C134.30253119 67.10770758 137.50413822 70.91335933 140.8125 74.8125 C141.32506348 75.38637451 141.83762695 75.96024902 142.36572266 76.55151367 C173.20131447 111.16593526 191.66406404 156.19232409 196.25 202.125 C196.35530029 203.0855127 196.46060059 204.04602539 196.5690918 205.03564453 C197.07734277 210.90358594 196.74544059 214.65620121 193.8125 219.8125 C188.76499278 224.49067742 185.43256912 224.96121884 178.75384521 224.95967102 C177.48968902 224.96518605 177.48968902 224.96518605 176.19999433 224.9708125 C173.35956047 224.98187674 170.51916315 224.98569781 167.67871094 224.98950195 C165.64876692 224.99576453 163.61882405 225.00241114 161.58888245 225.00941467 C156.06191877 225.02684343 150.53496376 225.03738152 145.00797939 225.0456202 C141.55688513 225.05076632 138.10579358 225.05684223 134.65470123 225.06313133 C123.86278401 225.08218853 113.07087365 225.09641861 102.27894282 225.1047433 C89.81083097 225.11451903 77.3428965 225.1408452 64.87484717 225.18124419 C55.24506723 225.21137859 45.61533821 225.22620963 35.98551202 225.22952431 C30.23069668 225.23187784 24.47607072 225.24087759 18.72130585 225.26598549 C13.3073307 225.28922435 7.89367018 225.29351623 2.47965813 225.28322411 C0.49227033 225.28272762 -1.49513273 225.28908119 -3.48247337 225.30278015 C-6.19566465 225.32043631 -8.90771913 225.31342395 -11.62091064 225.30024719 C-12.40749565 225.31121644 -13.19408066 225.32218568 -14.00450158 225.33348733 C-19.22188618 225.27230764 -22.1531993 224.08425129 -26.1875 220.8125 C-30.77746732 215.90598321 -30.3352475 210.06466488 -30.32794189 203.67228699 C-30.33091302 202.85694892 -30.33388414 202.04161085 -30.3369453 201.20156556 C-30.34561093 198.47185033 -30.34713873 195.74217906 -30.34863281 193.01245117 C-30.35326245 191.05427456 -30.35828731 189.09609886 -30.36367798 187.13792419 C-30.37678886 181.81967125 -30.38324424 176.50143093 -30.38768864 171.18316436 C-30.39062114 167.85984805 -30.39472626 164.53653517 -30.39919281 161.2132206 C-30.41286353 150.81321643 -30.42253259 140.41322014 -30.4263947 130.01320761 C-30.43087625 118.01155055 -30.44843046 106.01000733 -30.4773953 94.00838488 C-30.49901376 84.72840332 -30.50909905 75.44845379 -30.51043582 66.16844732 C-30.51148361 60.62715325 -30.51738621 55.08596626 -30.53525543 49.54469872 C-30.55173916 44.3318033 -30.55389009 39.11909544 -30.54511642 33.90618324 C-30.54434625 31.9954287 -30.54868619 30.08466405 -30.55857468 28.17393494 C-30.5713053 25.56028883 -30.56541144 22.94730592 -30.55499268 20.33366394 C-30.56304908 19.58218761 -30.57110548 18.83071128 -30.57940602 18.05646294 C-30.52976505 12.71165331 -29.39207648 8.69840668 -27.1875 3.8125 C-19.58496715 -3.59996953 -9.68335626 -1.35134977 0 0 Z " fill="#ffda06" transform="translate(282.1875,22.1875)"/>
<path d="M0 0 C1.12962225 -0.00551503 1.12962225 -0.00551503 2.28206515 -0.01114148 C4.81302995 -0.02218068 7.34395369 -0.02602255 9.87493896 -0.02983093 C11.6866621 -0.03609539 13.49838394 -0.04274217 15.31010437 -0.04974365 C20.23792105 -0.06715449 25.16572803 -0.07770559 30.09356785 -0.08594918 C33.17196636 -0.09109905 36.25036186 -0.09717478 39.32875824 -0.10346031 C48.95936309 -0.12251243 58.58996027 -0.13674366 68.22058034 -0.14507228 C79.33936975 -0.15484651 90.45796018 -0.18117083 101.57667947 -0.22157317 C110.16956129 -0.25172642 118.76238604 -0.26654039 127.35531974 -0.26985329 C132.48809111 -0.27220461 137.62064992 -0.2811758 142.75336456 -0.30631447 C147.58297483 -0.32958641 152.41223243 -0.33383192 157.24188423 -0.32355309 C159.01277145 -0.32305741 160.78367599 -0.32938728 162.55451012 -0.34310913 C164.97613358 -0.36082128 167.39649041 -0.35372607 169.81811523 -0.34057617 C170.51550442 -0.35154542 171.21289361 -0.36251466 171.9314158 -0.37381631 C177.31056046 -0.30350896 180.31460246 1.20717287 184.6630249 4.14717102 C189.69421471 10.29754387 188.16950167 18.98764315 187.43597412 26.4601593 C182.35690646 70.09356064 164.98823674 111.62483335 136.7880249 145.33467102 C136.33556396 145.87591614 135.88310303 146.41716125 135.41693115 146.97480774 C131.21947462 151.87549486 128.42294126 154.28681334 121.95599365 155.32685852 C115.64652864 154.83242004 111.20534817 151.27540605 106.93736267 146.91598511 C106.40601457 146.38946584 105.87466648 145.86294658 105.32721692 145.32047218 C103.56129578 143.56576149 101.80995454 141.79720702 100.05828857 140.02827454 C98.79042417 138.76255744 97.52169398 137.49770709 96.25216675 136.23365784 C92.81566669 132.80683219 89.39176416 129.36767008 85.97027755 125.92586255 C82.38635186 122.32434398 78.79185995 118.73339943 75.19874573 115.14105225 C69.16900949 109.1094445 63.14706107 103.07014974 57.13006592 97.02583313 C50.17195411 90.0362437 43.20341737 83.05718947 36.22881716 76.08405548 C29.51822581 69.37468436 22.81336558 62.65961803 16.11168861 55.94134331 C13.25962553 53.08221681 10.40586847 50.224797 7.55080223 47.36866951 C4.19145364 44.00731329 0.8372474 40.64090744 -2.51302719 37.27050781 C-3.74406454 36.03362491 -4.97680196 34.79843141 -6.21134377 33.56504631 C-7.89431556 31.88305493 -9.57101679 30.19505322 -11.24623108 28.50534058 C-11.98322879 27.77298867 -11.98322879 27.77298867 -12.73511535 27.02584177 C-16.5193366 23.18727136 -18.61653627 20.2121844 -18.7119751 14.77217102 C-18.60698169 10.21245724 -17.34344225 7.65471603 -14.3369751 4.14717102 C-9.84812253 0.20242179 -5.76011887 -0.00150351 0 0 Z " fill="#ffda06" transform="translate(324.33697509765625,275.8528289794922)"/>
</svg>
