<?xml version="1.0" encoding="UTF-8"?>
<svg version="1.1" xmlns="http://www.w3.org/2000/svg" width="512" height="512">
<path d="M0 0 C1.69680344 1.44749799 3.38482856 2.90537049 5.0625 4.375 C5.86300781 5.05433594 6.66351563 5.73367187 7.48828125 6.43359375 C12.4822128 10.739286 16.90510314 15.26088001 21.0625 20.375 C21.82304687 21.29796875 22.58359375 22.2209375 23.3671875 23.171875 C48.96556908 54.88820411 59.49373305 94.96143776 55.375 135.3125 C51.8422801 165.65645833 39.5186588 191.41744975 20.69726562 215.09228516 C-2.52244827 244.34253012 -17.17564402 279.44344382 -18.13671875 317.015625 C-18.18372925 318.75984741 -18.18372925 318.75984741 -18.23168945 320.53930664 C-18.28464396 322.84802723 -18.31901693 325.15726584 -18.33276367 327.46655273 C-18.45919532 333.68990369 -18.66848856 337.68228518 -22.9375 342.375 C-25.54551069 343.67900535 -27.46162249 343.50980027 -30.38337708 343.52217102 C-32.11839226 343.53290398 -32.11839226 343.53290398 -33.88845825 343.54385376 C-35.16381439 343.54654266 -36.43917053 343.54923157 -37.75317383 343.55200195 C-39.10494665 343.55826592 -40.45671774 343.56491267 -41.80848694 343.57191467 C-45.48626689 343.58933032 -49.16403383 343.59987794 -52.8418448 343.6081202 C-55.1391251 343.61326913 -57.43640137 343.61934491 -59.73367882 343.62563133 C-66.91992321 343.64468493 -74.10615731 343.65891575 -81.29242212 343.6672433 C-89.59039673 343.67701761 -97.88810473 343.70334125 -106.18598539 343.74374419 C-112.5979427 343.7738941 -119.00982355 343.78871109 -125.42185038 343.79202431 C-129.2523348 343.79437609 -133.08253444 343.80335258 -136.91294289 343.82848549 C-140.51715063 343.85175192 -144.12088581 343.85600558 -147.72514915 343.84572411 C-149.67679256 343.84499203 -151.62841189 343.86409339 -153.57995605 343.88378906 C-155.32766045 343.87337334 -155.32766045 343.87337334 -157.110672 343.86274719 C-158.62635128 343.86632972 -158.62635128 343.86632972 -160.17265034 343.86998463 C-163.69245025 343.23984301 -165.3750625 341.81643614 -167.9375 339.375 C-169.17522257 336.89955485 -169.11126556 335.14759035 -169.18359375 332.37890625 C-169.21485352 331.35506836 -169.24611328 330.33123047 -169.27832031 329.27636719 C-169.31022461 328.17454102 -169.34212891 327.07271484 -169.375 325.9375 C-170.87411481 284.49346784 -181.21573289 247.00976829 -209 215.375 C-233.59852871 187.29197271 -246.20170548 148.37584308 -243.796875 111.20117188 C-240.73902474 68.42601657 -221.92548179 31.18640609 -189.80078125 2.7421875 C-167.92182146 -15.34601118 -142.69772755 -25.66391564 -114.9375 -30.625 C-113.84566406 -30.82738281 -112.75382813 -31.02976562 -111.62890625 -31.23828125 C-71.86551255 -35.40397011 -31.32321383 -25.27609338 0 0 Z " fill="#ffda06" transform="translate(348.9375,36.625)"/>
<path d="M0 0 C0.17444825 1.58249487 0.33892422 3.16608813 0.5 4.75 C0.5928125 5.63171875 0.685625 6.5134375 0.78125 7.421875 C0.98194903 10.70473766 1.02145374 13.93579496 1.01367188 17.22363281 C1.011698 18.30509583 1.00972412 19.38655884 1.00769043 20.50079346 C1.00388367 21.7379007 1.00388367 21.7379007 1 23 C-11.45806307 24.0864485 -23.916408 25.16963386 -36.375 26.25 C-37.2942564 26.32971668 -38.2135128 26.40943336 -39.16062546 26.4915657 C-69.43126554 29.11554173 -99.70651762 31.65217118 -130 34 C-131.20270964 31.59458071 -131.20316663 29.89633409 -131.31640625 27.2109375 C-131.35830078 26.26992188 -131.40019531 25.32890625 -131.44335938 24.359375 C-131.48267578 23.37453125 -131.52199219 22.3896875 -131.5625 21.375 C-131.60568359 20.38242187 -131.64886719 19.38984375 -131.69335938 18.3671875 C-131.79961069 15.91160162 -131.90164964 13.45591297 -132 11 C-115.08473254 9.56475881 -98.16938432 8.13047384 -81.25393867 6.69733429 C-73.40021073 6.03191463 -65.54650978 5.36617941 -57.69287109 4.69970703 C-50.84945423 4.1189645 -44.00598796 3.53880819 -37.16246116 2.95936251 C-33.53724728 2.65239259 -29.9120592 2.34512462 -26.28693008 2.03715515 C-22.24491177 1.6937803 -18.20278377 1.35171403 -14.16064453 1.00976562 C-12.95223907 0.9069075 -11.74383362 0.80404938 -10.49880981 0.69807434 C-9.40222046 0.60551865 -8.3056311 0.51296295 -7.17581177 0.41760254 C-6.21899065 0.33648476 -5.26216953 0.25536697 -4.27635384 0.17179108 C-2 0 -2 0 0 0 Z " fill="#ffda06" transform="translate(325,442)"/>
<path d="M0 0 C0.8768225 7.36604504 1.09264013 14.58441265 1 22 C-13.3778313 23.7030135 -27.77898926 24.970594 -42.20703125 26.1640625 C-44.5907266 26.36282926 -46.97440861 26.56175595 -49.358078 26.76083374 C-54.31386485 27.17417429 -59.26979123 27.58578603 -64.22583008 27.99609375 C-70.57668839 28.52199363 -76.92719513 29.05201193 -83.27760792 29.58326149 C-88.18189404 29.99313237 -93.08634521 30.4009992 -97.99085045 30.80823898 C-100.33407139 31.0030205 -102.67724337 31.19839189 -105.02036476 31.39436722 C-108.28139794 31.66678497 -111.54264072 31.93653869 -114.80395508 32.20556641 C-115.76757965 32.28658096 -116.73120422 32.36759552 -117.72402954 32.45106506 C-118.61361862 32.52390213 -119.5032077 32.5967392 -120.41975403 32.67178345 C-121.57241619 32.76744063 -121.57241619 32.76744063 -122.74836445 32.86503029 C-125.17050878 33.0102208 -127.5740857 33.02247969 -130 33 C-131.17469444 30.65061112 -131.20034889 29.04926795 -131.31640625 26.4296875 C-131.35830078 25.53378906 -131.40019531 24.63789063 -131.44335938 23.71484375 C-131.48267578 22.77769531 -131.52199219 21.84054687 -131.5625 20.875 C-131.60568359 19.93011719 -131.64886719 18.98523438 -131.69335938 18.01171875 C-131.79959072 15.67462908 -131.90163176 13.3374317 -132 11 C-129.64217626 9.82108813 -127.90025405 9.72015085 -125.27111816 9.50010681 C-123.77412384 9.3718325 -123.77412384 9.3718325 -122.24688721 9.2409668 C-121.14769958 9.15105469 -120.04851196 9.06114258 -118.91601562 8.96850586 C-117.76135803 8.87082413 -116.60670044 8.7731424 -115.41705322 8.67250061 C-111.58045673 8.34910191 -107.74338407 8.03179577 -103.90625 7.71484375 C-101.24261448 7.49231296 -98.5790003 7.26953775 -95.91540527 7.04652405 C-90.32015053 6.57873486 -84.72461341 6.11444319 -79.12890625 5.65209961 C-72.67914545 5.11913763 -66.22989935 4.58026169 -59.7808938 4.03824323 C-54.23534899 3.57231736 -48.68953864 3.10965643 -43.1434989 2.64965922 C-39.83541301 2.37527833 -36.52745755 2.09948078 -33.21968079 1.82139397 C-29.51982078 1.51094476 -25.81955632 1.2058439 -22.11914062 0.90209961 C-21.03614685 0.81016327 -19.95315308 0.71822693 -18.83734131 0.62350464 C-12.54162748 0.11335786 -6.31596 -0.11371806 0 0 Z " fill="#ffda06" transform="translate(325,399)"/>
<path d="M0 0 C15.84 0 31.68 0 48 0 C48 7.26 48 14.52 48 22 C32.16 22 16.32 22 0 22 C0 14.74 0 7.48 0 0 Z " fill="#ffda06" transform="translate(232,485)"/>
</svg>
