<?xml version="1.0" encoding="UTF-8"?>
<svg version="1.1" xmlns="http://www.w3.org/2000/svg" width="512" height="512">
<path d="M0 0 C1.30112671 -0.00706559 2.60225342 -0.01413118 3.94280821 -0.02141088 C5.37461983 -0.01915983 6.80643116 -0.01671337 8.23824215 -0.01409245 C9.76873423 -0.01854745 11.29922401 -0.02386236 12.82971042 -0.02996117 C17.02826969 -0.04412042 21.22675485 -0.04580485 25.42533457 -0.04536426 C29.95655285 -0.04701432 34.48774076 -0.06008447 39.01894283 -0.07155704 C48.92411069 -0.09439253 58.8292571 -0.10232625 68.73444772 -0.10738349 C74.92257426 -0.1106425 81.1106946 -0.11716627 87.29881763 -0.12438488 C104.44120648 -0.14394971 121.58358956 -0.16035434 138.7259903 -0.16326141 C139.82267397 -0.16344898 140.91935763 -0.16363655 142.04927414 -0.16382981 C144.27240622 -0.16419605 146.4955383 -0.16455975 148.71867038 -0.16492092 C150.37395998 -0.16519514 150.37395998 -0.16519514 152.06268978 -0.16547489 C153.72000654 -0.16574572 153.72000654 -0.16574572 155.41080444 -0.16602201 C173.30676732 -0.16956233 191.20260977 -0.19657637 209.0985309 -0.23397278 C227.48412831 -0.27208408 245.86966602 -0.2914191 264.2553038 -0.29172093 C274.57325024 -0.29230489 284.89105304 -0.3007578 295.20896244 -0.32971859 C303.99631366 -0.35427032 312.78346886 -0.36148984 321.57084513 -0.34647106 C326.0506361 -0.33931743 330.53004031 -0.34009253 335.00978756 -0.36288166 C339.1190258 -0.38358478 343.22758274 -0.38076676 347.33681452 -0.36000682 C348.81531544 -0.35653341 350.29386668 -0.36132977 351.77230174 -0.37571125 C367.32741257 -0.51714804 379.30159163 3.40784366 390.5165472 14.35771847 C398.60174115 22.87873142 403.60743931 32.99174218 403.62817192 44.89195251 C403.63877031 46.84364258 403.63877031 46.84364258 403.6495828 48.83476073 C403.64733176 50.26657235 403.64488529 51.69838367 403.64226437 53.13019466 C403.64671937 54.66068675 403.65203428 56.19117652 403.65813309 57.72166294 C403.67229234 61.9202222 403.67397677 66.11870737 403.67353618 70.31728709 C403.67518624 74.84850536 403.68825639 79.37969327 403.69972897 83.91089535 C403.72256445 93.81606321 403.73049817 103.72120962 403.73555541 113.62640023 C403.73881442 119.81452678 403.74533819 126.00264712 403.7525568 132.19077015 C403.77212163 149.333159 403.78852626 166.47554208 403.79143333 183.61794281 C403.7916209 184.71462648 403.79180847 185.81131015 403.79200173 186.94122666 C403.79236797 189.16435873 403.79273167 191.38749081 403.79309284 193.61062289 C403.79327565 194.71414929 403.79345846 195.8176757 403.79364681 196.9546423 C403.79391764 198.61195905 403.79391764 198.61195905 403.79419393 200.30275696 C403.79773425 218.19871984 403.82474829 236.09456228 403.8621447 253.99048341 C403.900256 272.37608082 403.91959102 290.76161853 403.91989285 309.14725631 C403.92047682 319.46520275 403.92892972 329.78300556 403.95789051 340.10091496 C403.98244224 348.88826617 403.98966176 357.67542138 403.97464298 366.46279765 C403.96748935 370.94258862 403.96826445 375.42199283 403.99105358 379.90174007 C404.0117567 384.01097832 404.00893868 388.11953526 403.98817874 392.22876703 C403.98470534 393.70726796 403.98950169 395.18581919 404.00388318 396.66425426 C404.14531996 412.21936508 400.22032826 424.19354414 389.27045345 435.40849972 C380.7494405 443.49369367 370.63642974 448.49939183 358.73621941 448.52012444 C356.78452934 448.53072282 356.78452934 448.53072282 354.7934112 448.54153532 C353.36159957 448.53928427 351.92978825 448.53683781 350.49797726 448.53421688 C348.96748518 448.53867189 347.4369954 448.54398679 345.90650898 448.5500856 C341.70794972 448.56424486 337.50946455 448.56592929 333.31088483 448.5654887 C328.77966656 448.56713876 324.24847865 448.58020891 319.71727657 448.59168148 C309.81210871 448.61451696 299.9069623 448.62245068 290.00177169 448.62750793 C283.81364514 448.63076694 277.6255248 448.6372907 271.43740177 448.64450932 C254.29501292 448.66407414 237.15262984 448.68047878 220.01022911 448.68338585 C218.36520361 448.6836672 218.36520361 448.6836672 216.68694526 448.68395424 C214.46381319 448.68432049 212.24068111 448.68468419 210.01754903 448.68504535 C208.36225942 448.68531957 208.36225942 448.68531957 206.67352962 448.68559933 C205.01621287 448.68587015 205.01621287 448.68587015 203.32541496 448.68614645 C185.42945209 448.68968676 167.53360964 448.7167008 149.63768851 448.75409722 C131.2520911 448.79220851 112.86655339 448.81154354 94.48091561 448.81184536 C84.16296917 448.81242933 73.84516636 448.82088223 63.52725697 448.84984303 C54.73990575 448.87439476 45.95275054 448.88161427 37.16537427 448.8665955 C32.68558331 448.85944186 28.20617909 448.86021696 23.72643185 448.8830061 C19.61719361 448.90370921 15.50863666 448.9008912 11.39940489 448.88013125 C9.92090396 448.87665785 8.44235273 448.8814542 6.96391767 448.89583569 C-8.59119316 449.03727248 -20.56537222 445.11228077 -31.7803278 434.16240597 C-39.86552174 425.64139302 -44.87121991 415.52838225 -44.89195251 403.62817192 C-44.89901811 402.32704521 -44.9060837 401.0259185 -44.9133634 399.68536371 C-44.91111235 398.25355209 -44.90866589 396.82174076 -44.90604496 395.38992977 C-44.91049996 393.85943769 -44.91581487 392.32894791 -44.92191368 390.7984615 C-44.93607294 386.59990223 -44.93775737 382.40141707 -44.93731678 378.20283735 C-44.93896684 373.67161907 -44.95203699 369.14043116 -44.96350956 364.60922909 C-44.98634504 354.70406123 -44.99427876 344.79891482 -44.999336 334.8937242 C-45.00259502 328.70559766 -45.00911878 322.51747732 -45.01633739 316.32935429 C-45.03590222 299.18696544 -45.05230686 282.04458236 -45.05521393 264.90218163 C-45.0554015 263.80549796 -45.05558907 262.70881429 -45.05578232 261.57889778 C-45.05614857 259.3557657 -45.05651226 257.13263362 -45.05687343 254.90950155 C-45.05705624 253.80597514 -45.05723906 252.70244874 -45.05742741 251.56548214 C-45.05760796 250.4606043 -45.0577885 249.35572646 -45.05797452 248.21736748 C-45.06151484 230.3214046 -45.08852888 212.42556215 -45.1259253 194.52964102 C-45.16403659 176.14404361 -45.18337162 157.7585059 -45.18367344 139.37286812 C-45.18425741 129.05492168 -45.19271031 118.73711888 -45.2216711 108.41920948 C-45.24622284 99.63185826 -45.25344235 90.84470306 -45.23842358 82.05732679 C-45.23126994 77.57753582 -45.23204504 73.09813161 -45.25483418 68.61838436 C-45.27553729 64.50914612 -45.27271928 60.40058918 -45.25195933 56.29135741 C-45.24848593 54.81285648 -45.25328228 53.33430524 -45.26766377 51.85587018 C-45.40910056 36.30075935 -41.48410885 24.32658029 -30.53423405 13.11162472 C-22.01322109 5.02643077 -11.90021033 0.02073261 0 0 Z M-8.5693903 38.01006222 C-18.75517567 54.06039068 -12.6318903 83.02345248 -12.6318903 96.26006222 C114.0881097 96.26006222 240.8081097 96.26006222 371.3681097 96.26006222 C374.98611202 68.62148512 374.98611202 68.62148512 365.6181097 36.32256222 C357.90911427 31.43031512 350.09273247 31.97324478 341.22360897 31.99936581 C339.77205009 31.99634346 338.32049281 31.99245355 336.86893833 31.98777324 C332.88874778 31.97749524 328.90864733 31.97967455 324.92844939 31.98395383 C320.63250842 31.98642142 316.33658912 31.97740649 312.04065609 31.96991634 C303.627737 31.95716819 295.21484982 31.9553758 286.80192269 31.95771661 C279.96339461 31.95949981 273.12487622 31.95775008 266.2863493 31.95349216 C265.31296908 31.95289698 264.33958885 31.95230179 263.33671226 31.95168856 C261.35927058 31.95047681 259.3818289 31.94926267 257.40438722 31.94804619 C238.8605703 31.93717019 220.31677156 31.93933342 201.77295361 31.94543103 C184.81129038 31.95060017 167.84968457 31.93934494 150.88803269 31.92033281 C133.46862103 31.90095738 116.04923654 31.8926979 98.62981403 31.89645606 C88.85141954 31.89836856 79.07307393 31.89587577 69.29468822 31.88174152 C60.97018726 31.86983052 52.64576526 31.86841969 44.32126321 31.88053169 C40.07508953 31.88642235 35.82906031 31.88751464 31.58289623 31.87552929 C27.69302307 31.86467733 23.80341513 31.86776558 19.91355442 31.88179097 C18.50917149 31.8844398 17.10476783 31.8820655 15.70040525 31.87405511 C2.44231779 31.57681778 2.44231779 31.57681778 -8.5693903 38.01006222 Z M19.3681097 160.26006222 C19.3681097 170.82006222 19.3681097 181.38006222 19.3681097 192.26006222 C56.3281097 192.26006222 93.2881097 192.26006222 131.3681097 192.26006222 C131.3681097 181.70006222 131.3681097 171.14006222 131.3681097 160.26006222 C94.4081097 160.26006222 57.4481097 160.26006222 19.3681097 160.26006222 Z M167.4306097 166.01006222 C162.82706888 173.26412655 163.07554828 180.29652799 163.0934515 188.66191769 C163.08834057 189.89694027 163.08322964 191.13196285 163.07796383 192.40441036 C163.06647883 195.77647485 163.06398892 199.14829281 163.06652713 202.52035952 C163.06760076 205.34320439 163.06270343 208.16602687 163.05792171 210.98886693 C163.0468456 217.65301304 163.04637825 224.31710277 163.05243587 230.98125362 C163.05847317 237.83807815 163.04616663 244.69469735 163.02486581 251.55148685 C163.0072063 257.45491774 163.00125532 263.35828354 163.00450355 269.26173985 C163.00630981 272.78034023 163.00374647 276.29879415 162.98978901 279.81737041 C162.97479124 283.74480034 162.98421877 287.67197208 162.99579525 291.59941769 C162.98815151 292.75295742 162.98050777 293.90649715 162.97263241 295.09499264 C163.01692394 301.90997379 163.17051086 309.28946968 167.64302254 314.84317493 C174.8629974 321.47237107 184.09274253 320.55205395 193.23871517 320.53472042 C194.64384894 320.53907263 196.04898033 320.54425748 197.45410824 320.55020809 C201.25585659 320.56355521 205.05750527 320.56418152 208.85927248 320.56164479 C212.04000362 320.56057208 215.22071484 320.56546617 218.40144169 320.57025021 C225.90938927 320.58133076 233.41728682 320.58179112 240.92523861 320.57573605 C248.65455927 320.569698 256.38369781 320.58200624 264.1129874 320.60330611 C270.7637567 320.62095575 277.41446821 320.62691815 284.06526005 320.62366837 C288.03098483 320.62186059 291.9965797 320.62444097 295.96228313 320.63838291 C299.69374644 320.6510114 303.42492712 320.64897012 307.15638638 320.63597202 C309.16681826 320.63250081 311.17725897 320.64374735 313.18765926 320.65553951 C324.21918351 320.65867885 324.21918351 320.65867885 333.94548512 315.98514938 C340.2645274 309.13199912 339.66141701 300.57211452 339.64276791 291.85820675 C339.64787884 290.62318417 339.65298977 289.38816158 339.65825558 288.11571407 C339.66974058 284.74364959 339.67223049 281.37183163 339.66969228 277.99976492 C339.66861865 275.17692005 339.67351597 272.35409756 339.6782977 269.53125751 C339.6893738 262.8671114 339.68984115 256.20302166 339.68378353 249.53887081 C339.67774624 242.68204629 339.69005278 235.82542709 339.7113536 228.96863759 C339.72901311 223.06520669 339.73496408 217.1618409 339.73171586 211.25838459 C339.7299096 207.73978421 339.73247293 204.22133029 339.7464304 200.70275402 C339.76142817 196.7753241 339.75200064 192.84815235 339.74042416 188.92070675 C339.74806789 187.76716702 339.75571163 186.61362728 339.763587 185.4251318 C339.71929547 178.61015065 339.56570854 171.23065476 335.09319687 165.6769495 C327.87322201 159.04775337 318.64347688 159.96807049 309.49750423 159.98540401 C308.09237047 159.9810518 306.68723907 159.97586696 305.28211117 159.96991634 C301.48036281 159.95656923 297.67871413 159.95594292 293.87694693 159.95847964 C290.69621579 159.95955236 287.51550457 159.95465827 284.33477771 159.94987422 C276.82683013 159.93879368 269.31893259 159.93833332 261.8109808 159.94438839 C254.08166014 159.95042643 246.3525216 159.93811819 238.62323201 159.91681832 C231.97246271 159.89916869 225.3217512 159.89320629 218.67095935 159.89645606 C214.70523458 159.89826385 210.73963971 159.89568347 206.77393627 159.88174152 C203.04247296 159.86911303 199.31129229 159.87115432 195.57983303 159.88415241 C193.56940115 159.88762363 191.55896044 159.87637708 189.54856014 159.86458492 C177.41297958 159.87401549 177.41297958 159.87401549 167.4306097 166.01006222 Z M19.3681097 224.26006222 C19.3681097 234.82006222 19.3681097 245.38006222 19.3681097 256.26006222 C56.3281097 256.26006222 93.2881097 256.26006222 131.3681097 256.26006222 C131.3681097 245.70006222 131.3681097 235.14006222 131.3681097 224.26006222 C94.4081097 224.26006222 57.4481097 224.26006222 19.3681097 224.26006222 Z M19.3681097 288.26006222 C19.3681097 298.82006222 19.3681097 309.38006222 19.3681097 320.26006222 C56.3281097 320.26006222 93.2881097 320.26006222 131.3681097 320.26006222 C131.3681097 309.70006222 131.3681097 299.14006222 131.3681097 288.26006222 C94.4081097 288.26006222 57.4481097 288.26006222 19.3681097 288.26006222 Z M19.3681097 352.26006222 C19.3681097 362.82006222 19.3681097 373.38006222 19.3681097 384.26006222 C124.9681097 384.26006222 230.5681097 384.26006222 339.3681097 384.26006222 C339.3681097 373.70006222 339.3681097 363.14006222 339.3681097 352.26006222 C233.7681097 352.26006222 128.1681097 352.26006222 19.3681097 352.26006222 Z " fill="#ffda06" transform="translate(76.63189029693604,31.739937782287598)"/>
<path d="M0 0 C10.56 0 21.12 0 32 0 C32 10.56 32 21.12 32 32 C21.44 32 10.88 32 0 32 C0 21.44 0 10.88 0 0 Z " fill="#ffda06" transform="translate(176,80)"/>
<path d="M0 0 C10.56 0 21.12 0 32 0 C32 10.56 32 21.12 32 32 C21.44 32 10.88 32 0 32 C0 21.44 0 10.88 0 0 Z " fill="#ffda06" transform="translate(128,80)"/>
<path d="M0 0 C10.56 0 21.12 0 32 0 C32 10.56 32 21.12 32 32 C21.44 32 10.88 32 0 32 C0 21.44 0 10.88 0 0 Z " fill="#ffda06" transform="translate(80,80)"/>
</svg>
